<svg xmlns="http://www.w3.org/2000/svg" xmlns:xlink="http://www.w3.org/1999/xlink" viewBox="0 0 1000 330" font-family="Battambang, Siemreap, sans-serif"><defs><marker id="arrow" viewBox="0 0 10 10" refX="9" refY="5" markerWidth="7" markerHeight="7" orient="auto-start-reverse"><path d="M0 0L10 5L0 10z" fill="context-stroke"/></marker></defs><rect width="1000" height="330" fill="#ffffff"/><text x="24.0" y="38.0" font-size="24" fill="#5d4037" text-anchor="start" font-weight="bold" class="ftitle">លំដាប់ការងារ លំហាត់ទី១០</text><text x="24.0" y="64.0" font-size="15" fill="#607d8b" text-anchor="start" font-weight="normal" class="fsub">គណនា និងវាយតម្លៃសន្ទស្សន៍ស្ពិចត្រាល់</text><rect x="30.0" y="110.0" width="173.6" height="120.0" rx="12" fill="#bcaaa4" stroke="none" stroke-width="1" /><text x="116.8" y="164.0" font-size="15" fill="#fff" text-anchor="middle" font-weight="bold" >គណនាសន្ទស្សន៍ប្រាំ</text><text x="116.8" y="190.0" font-size="13" fill="#fff" text-anchor="middle" font-weight="normal" >៣៥ នាទី</text><line x1="204.6" y1="170.0" x2="219.6" y2="170.0" stroke="#607d8b" stroke-width="2" marker-end="url(#arrow)"/><rect x="221.6" y="110.0" width="173.6" height="120.0" rx="12" fill="#a1887f" stroke="none" stroke-width="1" /><text x="308.4" y="164.0" font-size="15" fill="#fff" text-anchor="middle" font-weight="bold" >ដាក់ពណ៌</text><text x="308.4" y="190.0" font-size="13" fill="#fff" text-anchor="middle" font-weight="normal" >២០ នាទី</text><line x1="396.2" y1="170.0" x2="411.2" y2="170.0" stroke="#607d8b" stroke-width="2" marker-end="url(#arrow)"/><rect x="413.2" y="110.0" width="173.6" height="120.0" rx="12" fill="#8d6e63" stroke="none" stroke-width="1" /><text x="500.0" y="164.0" font-size="15" fill="#fff" text-anchor="middle" font-weight="bold" >យកគំរូ និងប្រៀបធៀប</text><text x="500.0" y="190.0" font-size="13" fill="#fff" text-anchor="middle" font-weight="normal" >២៥ នាទី</text><line x1="587.8" y1="170.0" x2="602.8" y2="170.0" stroke="#607d8b" stroke-width="2" marker-end="url(#arrow)"/><rect x="604.8" y="110.0" width="173.6" height="120.0" rx="12" fill="#6d4c41" stroke="none" stroke-width="1" /><text x="691.6" y="164.0" font-size="15" fill="#fff" text-anchor="middle" font-weight="bold" >វាយតម្លៃភាពបែងចែក</text><text x="691.6" y="190.0" font-size="13" fill="#fff" text-anchor="middle" font-weight="normal" >១៥ នាទី</text><line x1="779.4" y1="170.0" x2="794.4" y2="170.0" stroke="#607d8b" stroke-width="2" marker-end="url(#arrow)"/><rect x="796.4" y="110.0" width="173.6" height="120.0" rx="12" fill="#5d4037" stroke="none" stroke-width="1" /><text x="883.2" y="164.0" font-size="15" fill="#fff" text-anchor="middle" font-weight="bold" >របាយការណ៍ខ្លី</text><text x="883.2" y="190.0" font-size="13" fill="#fff" text-anchor="middle" font-weight="normal" >១៥ នាទី</text><text x="500.0" y="290.0" font-size="15" fill="#607d8b" text-anchor="middle" font-weight="normal" >សរុបប្រហែល ១១០ នាទី</text></svg>