<svg xmlns="http://www.w3.org/2000/svg" xmlns:xlink="http://www.w3.org/1999/xlink" viewBox="0 0 1000 420" font-family="Battambang, Siemreap, sans-serif"><rect width="1000" height="420" fill="#ffffff"/><text x="24.0" y="38.0" font-size="24" fill="#5d4037" text-anchor="start" font-weight="bold" class="ftitle">ការខ្ចាត់ Rayleigh ∝ 1/λ⁴</text><rect x="100.0" y="90.0" width="520.0" height="250.0" rx="0" fill="#fff" stroke="#cfd8dc" stroke-width="0.8" /><line x1="100.0" y1="340.0" x2="100.0" y2="345.0" stroke="#263238" stroke-width="0.8"/><text x="100.0" y="360.0" font-size="12" fill="#546e7a" text-anchor="middle" font-weight="normal" >០.៤</text><line x1="186.7" y1="340.0" x2="186.7" y2="345.0" stroke="#263238" stroke-width="0.8"/><text x="186.7" y="360.0" font-size="12" fill="#546e7a" text-anchor="middle" font-weight="normal" >០.៥</text><line x1="273.3" y1="340.0" x2="273.3" y2="345.0" stroke="#263238" stroke-width="0.8"/><text x="273.3" y="360.0" font-size="12" fill="#546e7a" text-anchor="middle" font-weight="normal" >០.៦</text><line x1="360.0" y1="340.0" x2="360.0" y2="345.0" stroke="#263238" stroke-width="0.8"/><text x="360.0" y="360.0" font-size="12" fill="#546e7a" text-anchor="middle" font-weight="normal" >០.៧</text><line x1="446.7" y1="340.0" x2="446.7" y2="345.0" stroke="#263238" stroke-width="0.8"/><text x="446.7" y="360.0" font-size="12" fill="#546e7a" text-anchor="middle" font-weight="normal" >០.៨</text><line x1="533.3" y1="340.0" x2="533.3" y2="345.0" stroke="#263238" stroke-width="0.8"/><text x="533.3" y="360.0" font-size="12" fill="#546e7a" text-anchor="middle" font-weight="normal" >០.៩</text><line x1="620.0" y1="340.0" x2="620.0" y2="345.0" stroke="#263238" stroke-width="0.8"/><text x="620.0" y="360.0" font-size="12" fill="#546e7a" text-anchor="middle" font-weight="normal" >១.០</text><line x1="100.0" y1="340.0" x2="620.0" y2="340.0" stroke="#eceff1" stroke-width="0.8"/><text x="94.0" y="344.0" font-size="12" fill="#546e7a" text-anchor="end" font-weight="normal" >០</text><line x1="100.0" y1="261.9" x2="620.0" y2="261.9" stroke="#eceff1" stroke-width="0.8"/><text x="94.0" y="265.9" font-size="12" fill="#546e7a" text-anchor="end" font-weight="normal" >០.៥</text><line x1="100.0" y1="183.8" x2="620.0" y2="183.8" stroke="#eceff1" stroke-width="0.8"/><text x="94.0" y="187.8" font-size="12" fill="#546e7a" text-anchor="end" font-weight="normal" >១</text><line x1="100.0" y1="105.6" x2="620.0" y2="105.6" stroke="#eceff1" stroke-width="0.8"/><text x="94.0" y="109.6" font-size="12" fill="#546e7a" text-anchor="end" font-weight="normal" >១.៥</text><path d="M100.0 89.7 L105.2 104.2 L110.4 117.6 L115.6 130.1 L120.8 141.8 L126.0 152.6 L131.2 162.7 L136.4 172.1 L141.6 180.9 L146.8 189.2 L152.0 196.9 L157.2 204.1 L162.4 210.9 L167.6 217.3 L172.8 223.2 L178.0 228.9 L183.2 234.1 L188.4 239.1 L193.6 243.8 L198.8 248.2 L204.0 252.4 L209.2 256.3 L214.4 260.0 L219.6 263.5 L224.8 266.8 L230.0 270.0 L235.2 273.0 L240.4 275.8 L245.6 278.4 L250.8 281.0 L256.0 283.4 L261.2 285.7 L266.4 287.8 L271.6 289.9 L276.8 291.9 L282.0 293.7 L287.2 295.5 L292.4 297.2 L297.6 298.8 L302.8 300.3 L308.0 301.8 L313.2 303.2 L318.4 304.5 L323.6 305.8 L328.8 307.0 L334.0 308.2 L339.2 309.3 L344.4 310.4 L349.6 311.4 L354.8 312.4 L360.0 313.3 L365.2 314.2 L370.4 315.1 L375.6 315.9 L380.8 316.7 L386.0 317.4 L391.2 318.2 L396.4 318.9 L401.6 319.5 L406.8 320.2 L412.0 320.8 L417.2 321.4 L422.4 322.0 L427.6 322.5 L432.8 323.0 L438.0 323.6 L443.2 324.0 L448.4 324.5 L453.6 325.0 L458.8 325.4 L464.0 325.8 L469.2 326.2 L474.4 326.6 L479.6 327.0 L484.8 327.4 L490.0 327.7 L495.2 328.1 L500.4 328.4 L505.6 328.7 L510.8 329.0 L516.0 329.3 L521.2 329.6 L526.4 329.9 L531.6 330.1 L536.8 330.4 L542.0 330.7 L547.2 330.9 L552.4 331.1 L557.6 331.4 L562.8 331.6 L568.0 331.8 L573.2 332.0 L578.4 332.2 L583.6 332.4 L588.8 332.6 L594.0 332.8 L599.2 332.9 L604.4 333.1 L609.6 333.3 L614.8 333.4 L620.0 333.6" fill="none" stroke="#1e88e5" stroke-width="3" opacity="1" /><text x="360.0" y="382.0" font-size="14" fill="#263238" text-anchor="middle" font-weight="normal" >រលកចម្ងាយ (µm)</text><text x="54.0" y="215.0" font-size="14" fill="#263238" text-anchor="middle" font-weight="normal" transform="rotate(-90 54 215.0)">ការខ្ចាត់ (ធៀបនឹង ០,៤៥ µm)</text><text x="700.0" y="132.5" font-size="14" fill="#263238" text-anchor="end" font-weight="normal" >B2</text><rect x="710.0" y="110.0" width="270.0" height="35.0" rx="0" fill="#1e88e5" stroke="none" stroke-width="1" /><text x="986.0" y="132.5" font-size="13" fill="#263238" text-anchor="start" font-weight="normal" >០.១០៥</text><text x="700.0" y="182.5" font-size="14" fill="#263238" text-anchor="end" font-weight="normal" >B3</text><rect x="710.0" y="160.0" width="226.4" height="35.0" rx="0" fill="#43a047" stroke="none" stroke-width="1" /><text x="942.4" y="182.5" font-size="13" fill="#263238" text-anchor="start" font-weight="normal" >០.០៨៨</text><text x="700.0" y="232.5" font-size="14" fill="#263238" text-anchor="end" font-weight="normal" >B4</text><rect x="710.0" y="210.0" width="161.6" height="35.0" rx="0" fill="#e53935" stroke="none" stroke-width="1" /><text x="877.6" y="232.5" font-size="13" fill="#263238" text-anchor="start" font-weight="normal" >០.០៦៣</text><text x="700.0" y="282.5" font-size="14" fill="#263238" text-anchor="end" font-weight="normal" >B5</text><rect x="710.0" y="260.0" width="86.2" height="35.0" rx="0" fill="#8d6e63" stroke="none" stroke-width="1" /><text x="802.2" y="282.5" font-size="13" fill="#263238" text-anchor="start" font-weight="normal" >០.០៣៤</text><text x="820.0" y="350.0" font-size="13" fill="#607d8b" text-anchor="middle" font-weight="normal" >ភាគរយ ២% ងងឹតបំផុត (ផ្លូវពន្លឺ)</text></svg>