<svg xmlns="http://www.w3.org/2000/svg" xmlns:xlink="http://www.w3.org/1999/xlink" viewBox="0 0 1000 420" font-family="Battambang, Siemreap, sans-serif"><defs><marker id="arrow" viewBox="0 0 10 10" refX="9" refY="5" markerWidth="7" markerHeight="7" orient="auto-start-reverse"><path d="M0 0L10 5L0 10z" fill="context-stroke"/></marker></defs><rect width="1000" height="420" fill="#ffffff"/><text x="24.0" y="38.0" font-size="24" fill="#5d4037" text-anchor="start" font-weight="bold" class="ftitle">របៀបស្កេនពីរ</text><rect x="60.0" y="110.0" width="34.0" height="30.0" rx="0" fill="#e0f2f1" stroke="#b0bec5" stroke-width="0.6" /><rect x="94.0" y="110.0" width="34.0" height="30.0" rx="0" fill="#e0f2f1" stroke="#b0bec5" stroke-width="0.6" /><rect x="128.0" y="110.0" width="34.0" height="30.0" rx="0" fill="#e0f2f1" stroke="#b0bec5" stroke-width="0.6" /><rect x="162.0" y="110.0" width="34.0" height="30.0" rx="0" fill="#e0f2f1" stroke="#b0bec5" stroke-width="0.6" /><rect x="196.0" y="110.0" width="34.0" height="30.0" rx="0" fill="#e0f2f1" stroke="#b0bec5" stroke-width="0.6" /><rect x="230.0" y="110.0" width="34.0" height="30.0" rx="0" fill="#e0f2f1" stroke="#b0bec5" stroke-width="0.6" /><rect x="264.0" y="110.0" width="34.0" height="30.0" rx="0" fill="#e0f2f1" stroke="#b0bec5" stroke-width="0.6" /><rect x="298.0" y="110.0" width="34.0" height="30.0" rx="0" fill="#e0f2f1" stroke="#b0bec5" stroke-width="0.6" /><rect x="332.0" y="110.0" width="34.0" height="30.0" rx="0" fill="#e0f2f1" stroke="#b0bec5" stroke-width="0.6" /><rect x="366.0" y="110.0" width="34.0" height="30.0" rx="0" fill="#e0f2f1" stroke="#b0bec5" stroke-width="0.6" /><rect x="60.0" y="140.0" width="34.0" height="30.0" rx="0" fill="#e0f2f1" stroke="#b0bec5" stroke-width="0.6" /><rect x="94.0" y="140.0" width="34.0" height="30.0" rx="0" fill="#e0f2f1" stroke="#b0bec5" stroke-width="0.6" /><rect x="128.0" y="140.0" width="34.0" height="30.0" rx="0" fill="#e0f2f1" stroke="#b0bec5" stroke-width="0.6" /><rect x="162.0" y="140.0" width="34.0" height="30.0" rx="0" fill="#e0f2f1" stroke="#b0bec5" stroke-width="0.6" /><rect x="196.0" y="140.0" width="34.0" height="30.0" rx="0" fill="#e0f2f1" stroke="#b0bec5" stroke-width="0.6" /><rect x="230.0" y="140.0" width="34.0" height="30.0" rx="0" fill="#e0f2f1" stroke="#b0bec5" stroke-width="0.6" /><rect x="264.0" y="140.0" width="34.0" height="30.0" rx="0" fill="#e0f2f1" stroke="#b0bec5" stroke-width="0.6" /><rect x="298.0" y="140.0" width="34.0" height="30.0" rx="0" fill="#e0f2f1" stroke="#b0bec5" stroke-width="0.6" /><rect x="332.0" y="140.0" width="34.0" height="30.0" rx="0" fill="#e0f2f1" stroke="#b0bec5" stroke-width="0.6" /><rect x="366.0" y="140.0" width="34.0" height="30.0" rx="0" fill="#e0f2f1" stroke="#b0bec5" stroke-width="0.6" /><rect x="60.0" y="170.0" width="34.0" height="30.0" rx="0" fill="#e0f2f1" stroke="#b0bec5" stroke-width="0.6" /><rect x="94.0" y="170.0" width="34.0" height="30.0" rx="0" fill="#e0f2f1" stroke="#b0bec5" stroke-width="0.6" /><rect x="128.0" y="170.0" width="34.0" height="30.0" rx="0" fill="#e0f2f1" stroke="#b0bec5" stroke-width="0.6" /><rect x="162.0" y="170.0" width="34.0" height="30.0" rx="0" fill="#e0f2f1" stroke="#b0bec5" stroke-width="0.6" /><rect x="196.0" y="170.0" width="34.0" height="30.0" rx="0" fill="#e0f2f1" stroke="#b0bec5" stroke-width="0.6" /><rect x="230.0" y="170.0" width="34.0" height="30.0" rx="0" fill="#e0f2f1" stroke="#b0bec5" stroke-width="0.6" /><rect x="264.0" y="170.0" width="34.0" height="30.0" rx="0" fill="#e0f2f1" stroke="#b0bec5" stroke-width="0.6" /><rect x="298.0" y="170.0" width="34.0" height="30.0" rx="0" fill="#e0f2f1" stroke="#b0bec5" stroke-width="0.6" /><rect x="332.0" y="170.0" width="34.0" height="30.0" rx="0" fill="#e0f2f1" stroke="#b0bec5" stroke-width="0.6" /><rect x="366.0" y="170.0" width="34.0" height="30.0" rx="0" fill="#e0f2f1" stroke="#b0bec5" stroke-width="0.6" /><rect x="60.0" y="200.0" width="34.0" height="30.0" rx="0" fill="#fafafa" stroke="#b0bec5" stroke-width="0.6" /><rect x="94.0" y="200.0" width="34.0" height="30.0" rx="0" fill="#fafafa" stroke="#b0bec5" stroke-width="0.6" /><rect x="128.0" y="200.0" width="34.0" height="30.0" rx="0" fill="#fafafa" stroke="#b0bec5" stroke-width="0.6" /><rect x="162.0" y="200.0" width="34.0" height="30.0" rx="0" fill="#fafafa" stroke="#b0bec5" stroke-width="0.6" /><rect x="196.0" y="200.0" width="34.0" height="30.0" rx="0" fill="#fafafa" stroke="#b0bec5" stroke-width="0.6" /><rect x="230.0" y="200.0" width="34.0" height="30.0" rx="0" fill="#fafafa" stroke="#b0bec5" stroke-width="0.6" /><rect x="264.0" y="200.0" width="34.0" height="30.0" rx="0" fill="#fafafa" stroke="#b0bec5" stroke-width="0.6" /><rect x="298.0" y="200.0" width="34.0" height="30.0" rx="0" fill="#fafafa" stroke="#b0bec5" stroke-width="0.6" /><rect x="332.0" y="200.0" width="34.0" height="30.0" rx="0" fill="#fafafa" stroke="#b0bec5" stroke-width="0.6" /><rect x="366.0" y="200.0" width="34.0" height="30.0" rx="0" fill="#fafafa" stroke="#b0bec5" stroke-width="0.6" /><rect x="60.0" y="230.0" width="34.0" height="30.0" rx="0" fill="#fafafa" stroke="#b0bec5" stroke-width="0.6" /><rect x="94.0" y="230.0" width="34.0" height="30.0" rx="0" fill="#fafafa" stroke="#b0bec5" stroke-width="0.6" /><rect x="128.0" y="230.0" width="34.0" height="30.0" rx="0" fill="#fafafa" stroke="#b0bec5" stroke-width="0.6" /><rect x="162.0" y="230.0" width="34.0" height="30.0" rx="0" fill="#fafafa" stroke="#b0bec5" stroke-width="0.6" /><rect x="196.0" y="230.0" width="34.0" height="30.0" rx="0" fill="#fafafa" stroke="#b0bec5" stroke-width="0.6" /><rect x="230.0" y="230.0" width="34.0" height="30.0" rx="0" fill="#fafafa" stroke="#b0bec5" stroke-width="0.6" /><rect x="264.0" y="230.0" width="34.0" height="30.0" rx="0" fill="#fafafa" stroke="#b0bec5" stroke-width="0.6" /><rect x="298.0" y="230.0" width="34.0" height="30.0" rx="0" fill="#fafafa" stroke="#b0bec5" stroke-width="0.6" /><rect x="332.0" y="230.0" width="34.0" height="30.0" rx="0" fill="#fafafa" stroke="#b0bec5" stroke-width="0.6" /><rect x="366.0" y="230.0" width="34.0" height="30.0" rx="0" fill="#fafafa" stroke="#b0bec5" stroke-width="0.6" /><rect x="60.0" y="260.0" width="34.0" height="30.0" rx="0" fill="#fafafa" stroke="#b0bec5" stroke-width="0.6" /><rect x="94.0" y="260.0" width="34.0" height="30.0" rx="0" fill="#fafafa" stroke="#b0bec5" stroke-width="0.6" /><rect x="128.0" y="260.0" width="34.0" height="30.0" rx="0" fill="#fafafa" stroke="#b0bec5" stroke-width="0.6" /><rect x="162.0" y="260.0" width="34.0" height="30.0" rx="0" fill="#fafafa" stroke="#b0bec5" stroke-width="0.6" /><rect x="196.0" y="260.0" width="34.0" height="30.0" rx="0" fill="#fafafa" stroke="#b0bec5" stroke-width="0.6" /><rect x="230.0" y="260.0" width="34.0" height="30.0" rx="0" fill="#fafafa" stroke="#b0bec5" stroke-width="0.6" /><rect x="264.0" y="260.0" width="34.0" height="30.0" rx="0" fill="#fafafa" stroke="#b0bec5" stroke-width="0.6" /><rect x="298.0" y="260.0" width="34.0" height="30.0" rx="0" fill="#fafafa" stroke="#b0bec5" stroke-width="0.6" /><rect x="332.0" y="260.0" width="34.0" height="30.0" rx="0" fill="#fafafa" stroke="#b0bec5" stroke-width="0.6" /><rect x="366.0" y="260.0" width="34.0" height="30.0" rx="0" fill="#fafafa" stroke="#b0bec5" stroke-width="0.6" /><line x1="60.0" y1="185.0" x2="390.0" y2="185.0" stroke="#e64a19" stroke-width="3" marker-end="url(#arrow)"/><circle cx="80.0" cy="185.0" r="8.00" fill="#e64a19" stroke="none" stroke-width="1" opacity="1"/><line x1="420.0" y1="110.0" x2="420.0" y2="290.0" stroke="#607d8b" stroke-width="2" marker-end="url(#arrow)"/><text x="432.0" y="200.0" font-size="12" fill="#607d8b" text-anchor="start" font-weight="normal" >ទិសហោះ</text><text x="230.0" y="330.0" font-size="16" fill="#5d4037" text-anchor="middle" font-weight="bold" >Whiskbroom (ច្រាសស្កេន)</text><text x="230.0" y="358.0" font-size="13" fill="#607d8b" text-anchor="middle" font-weight="normal" >Landsat 5–7 · កញ្ចក់វិលស្កេនពីម្ខាងទៅម្ខាង</text><rect x="530.0" y="110.0" width="34.0" height="30.0" rx="0" fill="#e0f2f1" stroke="#b0bec5" stroke-width="0.6" /><rect x="564.0" y="110.0" width="34.0" height="30.0" rx="0" fill="#e0f2f1" stroke="#b0bec5" stroke-width="0.6" /><rect x="598.0" y="110.0" width="34.0" height="30.0" rx="0" fill="#e0f2f1" stroke="#b0bec5" stroke-width="0.6" /><rect x="632.0" y="110.0" width="34.0" height="30.0" rx="0" fill="#e0f2f1" stroke="#b0bec5" stroke-width="0.6" /><rect x="666.0" y="110.0" width="34.0" height="30.0" rx="0" fill="#e0f2f1" stroke="#b0bec5" stroke-width="0.6" /><rect x="700.0" y="110.0" width="34.0" height="30.0" rx="0" fill="#e0f2f1" stroke="#b0bec5" stroke-width="0.6" /><rect x="734.0" y="110.0" width="34.0" height="30.0" rx="0" fill="#e0f2f1" stroke="#b0bec5" stroke-width="0.6" /><rect x="768.0" y="110.0" width="34.0" height="30.0" rx="0" fill="#e0f2f1" stroke="#b0bec5" stroke-width="0.6" /><rect x="802.0" y="110.0" width="34.0" height="30.0" rx="0" fill="#e0f2f1" stroke="#b0bec5" stroke-width="0.6" /><rect x="836.0" y="110.0" width="34.0" height="30.0" rx="0" fill="#e0f2f1" stroke="#b0bec5" stroke-width="0.6" /><rect x="530.0" y="140.0" width="34.0" height="30.0" rx="0" fill="#e0f2f1" stroke="#b0bec5" stroke-width="0.6" /><rect x="564.0" y="140.0" width="34.0" height="30.0" rx="0" fill="#e0f2f1" stroke="#b0bec5" stroke-width="0.6" /><rect x="598.0" y="140.0" width="34.0" height="30.0" rx="0" fill="#e0f2f1" stroke="#b0bec5" stroke-width="0.6" /><rect x="632.0" y="140.0" width="34.0" height="30.0" rx="0" fill="#e0f2f1" stroke="#b0bec5" stroke-width="0.6" /><rect x="666.0" y="140.0" width="34.0" height="30.0" rx="0" fill="#e0f2f1" stroke="#b0bec5" stroke-width="0.6" /><rect x="700.0" y="140.0" width="34.0" height="30.0" rx="0" fill="#e0f2f1" stroke="#b0bec5" stroke-width="0.6" /><rect x="734.0" y="140.0" width="34.0" height="30.0" rx="0" fill="#e0f2f1" stroke="#b0bec5" stroke-width="0.6" /><rect x="768.0" y="140.0" width="34.0" height="30.0" rx="0" fill="#e0f2f1" stroke="#b0bec5" stroke-width="0.6" /><rect x="802.0" y="140.0" width="34.0" height="30.0" rx="0" fill="#e0f2f1" stroke="#b0bec5" stroke-width="0.6" /><rect x="836.0" y="140.0" width="34.0" height="30.0" rx="0" fill="#e0f2f1" stroke="#b0bec5" stroke-width="0.6" /><rect x="530.0" y="170.0" width="34.0" height="30.0" rx="0" fill="#e0f2f1" stroke="#b0bec5" stroke-width="0.6" /><rect x="564.0" y="170.0" width="34.0" height="30.0" rx="0" fill="#e0f2f1" stroke="#b0bec5" stroke-width="0.6" /><rect x="598.0" y="170.0" width="34.0" height="30.0" rx="0" fill="#e0f2f1" stroke="#b0bec5" stroke-width="0.6" /><rect x="632.0" y="170.0" width="34.0" height="30.0" rx="0" fill="#e0f2f1" stroke="#b0bec5" stroke-width="0.6" /><rect x="666.0" y="170.0" width="34.0" height="30.0" rx="0" fill="#e0f2f1" stroke="#b0bec5" stroke-width="0.6" /><rect x="700.0" y="170.0" width="34.0" height="30.0" rx="0" fill="#e0f2f1" stroke="#b0bec5" stroke-width="0.6" /><rect x="734.0" y="170.0" width="34.0" height="30.0" rx="0" fill="#e0f2f1" stroke="#b0bec5" stroke-width="0.6" /><rect x="768.0" y="170.0" width="34.0" height="30.0" rx="0" fill="#e0f2f1" stroke="#b0bec5" stroke-width="0.6" /><rect x="802.0" y="170.0" width="34.0" height="30.0" rx="0" fill="#e0f2f1" stroke="#b0bec5" stroke-width="0.6" /><rect x="836.0" y="170.0" width="34.0" height="30.0" rx="0" fill="#e0f2f1" stroke="#b0bec5" stroke-width="0.6" /><rect x="530.0" y="200.0" width="34.0" height="30.0" rx="0" fill="#fafafa" stroke="#b0bec5" stroke-width="0.6" /><rect x="564.0" y="200.0" width="34.0" height="30.0" rx="0" fill="#fafafa" stroke="#b0bec5" stroke-width="0.6" /><rect x="598.0" y="200.0" width="34.0" height="30.0" rx="0" fill="#fafafa" stroke="#b0bec5" stroke-width="0.6" /><rect x="632.0" y="200.0" width="34.0" height="30.0" rx="0" fill="#fafafa" stroke="#b0bec5" stroke-width="0.6" /><rect x="666.0" y="200.0" width="34.0" height="30.0" rx="0" fill="#fafafa" stroke="#b0bec5" stroke-width="0.6" /><rect x="700.0" y="200.0" width="34.0" height="30.0" rx="0" fill="#fafafa" stroke="#b0bec5" stroke-width="0.6" /><rect x="734.0" y="200.0" width="34.0" height="30.0" rx="0" fill="#fafafa" stroke="#b0bec5" stroke-width="0.6" /><rect x="768.0" y="200.0" width="34.0" height="30.0" rx="0" fill="#fafafa" stroke="#b0bec5" stroke-width="0.6" /><rect x="802.0" y="200.0" width="34.0" height="30.0" rx="0" fill="#fafafa" stroke="#b0bec5" stroke-width="0.6" /><rect x="836.0" y="200.0" width="34.0" height="30.0" rx="0" fill="#fafafa" stroke="#b0bec5" stroke-width="0.6" /><rect x="530.0" y="230.0" width="34.0" height="30.0" rx="0" fill="#fafafa" stroke="#b0bec5" stroke-width="0.6" /><rect x="564.0" y="230.0" width="34.0" height="30.0" rx="0" fill="#fafafa" stroke="#b0bec5" stroke-width="0.6" /><rect x="598.0" y="230.0" width="34.0" height="30.0" rx="0" fill="#fafafa" stroke="#b0bec5" stroke-width="0.6" /><rect x="632.0" y="230.0" width="34.0" height="30.0" rx="0" fill="#fafafa" stroke="#b0bec5" stroke-width="0.6" /><rect x="666.0" y="230.0" width="34.0" height="30.0" rx="0" fill="#fafafa" stroke="#b0bec5" stroke-width="0.6" /><rect x="700.0" y="230.0" width="34.0" height="30.0" rx="0" fill="#fafafa" stroke="#b0bec5" stroke-width="0.6" /><rect x="734.0" y="230.0" width="34.0" height="30.0" rx="0" fill="#fafafa" stroke="#b0bec5" stroke-width="0.6" /><rect x="768.0" y="230.0" width="34.0" height="30.0" rx="0" fill="#fafafa" stroke="#b0bec5" stroke-width="0.6" /><rect x="802.0" y="230.0" width="34.0" height="30.0" rx="0" fill="#fafafa" stroke="#b0bec5" stroke-width="0.6" /><rect x="836.0" y="230.0" width="34.0" height="30.0" rx="0" fill="#fafafa" stroke="#b0bec5" stroke-width="0.6" /><rect x="530.0" y="260.0" width="34.0" height="30.0" rx="0" fill="#fafafa" stroke="#b0bec5" stroke-width="0.6" /><rect x="564.0" y="260.0" width="34.0" height="30.0" rx="0" fill="#fafafa" stroke="#b0bec5" stroke-width="0.6" /><rect x="598.0" y="260.0" width="34.0" height="30.0" rx="0" fill="#fafafa" stroke="#b0bec5" stroke-width="0.6" /><rect x="632.0" y="260.0" width="34.0" height="30.0" rx="0" fill="#fafafa" stroke="#b0bec5" stroke-width="0.6" /><rect x="666.0" y="260.0" width="34.0" height="30.0" rx="0" fill="#fafafa" stroke="#b0bec5" stroke-width="0.6" /><rect x="700.0" y="260.0" width="34.0" height="30.0" rx="0" fill="#fafafa" stroke="#b0bec5" stroke-width="0.6" /><rect x="734.0" y="260.0" width="34.0" height="30.0" rx="0" fill="#fafafa" stroke="#b0bec5" stroke-width="0.6" /><rect x="768.0" y="260.0" width="34.0" height="30.0" rx="0" fill="#fafafa" stroke="#b0bec5" stroke-width="0.6" /><rect x="802.0" y="260.0" width="34.0" height="30.0" rx="0" fill="#fafafa" stroke="#b0bec5" stroke-width="0.6" /><rect x="836.0" y="260.0" width="34.0" height="30.0" rx="0" fill="#fafafa" stroke="#b0bec5" stroke-width="0.6" /><rect x="530.0" y="180.0" width="340.0" height="10.0" rx="0" fill="#e64a19" stroke="none" stroke-width="1" /><line x1="890.0" y1="110.0" x2="890.0" y2="290.0" stroke="#607d8b" stroke-width="2" marker-end="url(#arrow)"/><text x="902.0" y="200.0" font-size="12" fill="#607d8b" text-anchor="start" font-weight="normal" >ទិសហោះ</text><text x="700.0" y="330.0" font-size="16" fill="#5d4037" text-anchor="middle" font-weight="bold" >Pushbroom (អំបោស)</text><text x="700.0" y="358.0" font-size="13" fill="#607d8b" text-anchor="middle" font-weight="normal" >Landsat 8–9 · Sentinel-2 · ជួរធាតុចាប់សញ្ញារាប់ពាន់</text></svg>