<svg xmlns="http://www.w3.org/2000/svg" xmlns:xlink="http://www.w3.org/1999/xlink" viewBox="0 0 1000 420" font-family="Battambang, Siemreap, sans-serif"><rect width="1000" height="420" fill="#ffffff"/><text x="24.0" y="38.0" font-size="24" fill="#5d4037" text-anchor="start" font-weight="bold" class="ftitle">មុំព្រះអាទិត្យនៅភ្នំពេញ ម៉ោង ១០:៣០ (ប្រហាក់ប្រហែល)</text><rect x="100.0" y="90.0" width="700.0" height="250.0" rx="0" fill="#fff" stroke="#cfd8dc" stroke-width="0.8" /><line x1="100.0" y1="340.0" x2="100.0" y2="345.0" stroke="#263238" stroke-width="0.8"/><text x="100.0" y="360.0" font-size="12" fill="#546e7a" text-anchor="middle" font-weight="normal" >០</text><line x1="215.1" y1="340.0" x2="215.1" y2="345.0" stroke="#263238" stroke-width="0.8"/><text x="215.1" y="360.0" font-size="12" fill="#546e7a" text-anchor="middle" font-weight="normal" >៦០</text><line x1="330.1" y1="340.0" x2="330.1" y2="345.0" stroke="#263238" stroke-width="0.8"/><text x="330.1" y="360.0" font-size="12" fill="#546e7a" text-anchor="middle" font-weight="normal" >១២០</text><line x1="445.2" y1="340.0" x2="445.2" y2="345.0" stroke="#263238" stroke-width="0.8"/><text x="445.2" y="360.0" font-size="12" fill="#546e7a" text-anchor="middle" font-weight="normal" >១៨០</text><line x1="560.3" y1="340.0" x2="560.3" y2="345.0" stroke="#263238" stroke-width="0.8"/><text x="560.3" y="360.0" font-size="12" fill="#546e7a" text-anchor="middle" font-weight="normal" >២៤០</text><line x1="675.3" y1="340.0" x2="675.3" y2="345.0" stroke="#263238" stroke-width="0.8"/><text x="675.3" y="360.0" font-size="12" fill="#546e7a" text-anchor="middle" font-weight="normal" >៣០០</text><line x1="800.0" y1="340.0" x2="800.0" y2="345.0" stroke="#263238" stroke-width="0.8"/><text x="800.0" y="360.0" font-size="12" fill="#546e7a" text-anchor="middle" font-weight="normal" >៣៦៥</text><line x1="100.0" y1="340.0" x2="800.0" y2="340.0" stroke="#eceff1" stroke-width="0.8"/><text x="94.0" y="344.0" font-size="12" fill="#546e7a" text-anchor="end" font-weight="normal" >៤០</text><line x1="100.0" y1="290.0" x2="800.0" y2="290.0" stroke="#eceff1" stroke-width="0.8"/><text x="94.0" y="294.0" font-size="12" fill="#546e7a" text-anchor="end" font-weight="normal" >៥០</text><line x1="100.0" y1="240.0" x2="800.0" y2="240.0" stroke="#eceff1" stroke-width="0.8"/><text x="94.0" y="244.0" font-size="12" fill="#546e7a" text-anchor="end" font-weight="normal" >៦០</text><line x1="100.0" y1="190.0" x2="800.0" y2="190.0" stroke="#eceff1" stroke-width="0.8"/><text x="94.0" y="194.0" font-size="12" fill="#546e7a" text-anchor="end" font-weight="normal" >៧០</text><line x1="100.0" y1="140.0" x2="800.0" y2="140.0" stroke="#eceff1" stroke-width="0.8"/><text x="94.0" y="144.0" font-size="12" fill="#546e7a" text-anchor="end" font-weight="normal" >៨០</text><line x1="100.0" y1="90.0" x2="800.0" y2="90.0" stroke="#eceff1" stroke-width="0.8"/><text x="94.0" y="94.0" font-size="12" fill="#546e7a" text-anchor="end" font-weight="normal" >៩០</text><path d="M100.0 322.8 L109.6 320.4 L119.2 317.2 L128.8 313.2 L138.4 308.4 L147.9 302.9 L157.5 296.6 L167.1 289.7 L176.7 282.2 L186.3 274.2 L195.9 265.6 L205.5 256.6 L215.1 247.3 L224.7 237.7 L234.2 227.8 L243.8 217.8 L253.4 207.8 L263.0 197.7 L272.6 187.7 L282.2 177.8 L291.8 168.2 L301.4 158.9 L311.0 150.1 L320.5 158.7 L330.1 166.7 L339.7 174.2 L349.3 181.1 L358.9 187.4 L368.5 192.9 L378.1 197.7 L387.7 201.7 L397.3 204.9 L406.8 207.3 L416.4 208.8 L426.0 209.4 L435.6 209.2 L445.2 208.1 L454.8 206.2 L464.4 203.4 L474.0 199.8 L483.6 195.4 L493.2 190.2 L502.7 184.3 L512.3 177.8 L521.9 170.5 L531.5 162.8 L541.1 154.5 L550.7 154.3 L560.3 163.5 L569.9 173.0 L579.5 182.7 L589.0 192.7 L598.6 202.7 L608.2 212.8 L617.8 222.8 L627.4 232.8 L637.0 242.5 L646.6 252.0 L656.2 261.2 L665.8 270.0 L675.3 278.3 L684.9 286.0 L694.5 293.3 L704.1 299.8 L713.7 305.7 L723.3 310.9 L732.9 315.3 L742.5 318.9 L752.1 321.7 L761.6 323.6 L771.2 324.7 L780.8 324.9 L790.4 324.3" fill="none" stroke="#f9a825" stroke-width="3" opacity="1" /><text x="450.0" y="382.0" font-size="14" fill="#263238" text-anchor="middle" font-weight="normal" >ថ្ងៃក្នុងឆ្នាំ</text><text x="54.0" y="215.0" font-size="14" fill="#263238" text-anchor="middle" font-weight="normal" transform="rotate(-90 54 215.0)">មុំ (ដឺក្រេ)</text><circle cx="180.5" cy="282.0" r="6.00" fill="#e64a19" stroke="none" stroke-width="1" opacity="1"/><text x="190.5" y="302.0" font-size="13" fill="#e64a19" text-anchor="start" font-weight="normal" >រូបភាពរបស់យើង ៥១,៦°</text></svg>