<svg xmlns="http://www.w3.org/2000/svg" xmlns:xlink="http://www.w3.org/1999/xlink" viewBox="0 0 1000 400" font-family="Battambang, Siemreap, sans-serif"><defs><marker id="arrow" viewBox="0 0 10 10" refX="9" refY="5" markerWidth="7" markerHeight="7" orient="auto-start-reverse"><path d="M0 0L10 5L0 10z" fill="context-stroke"/></marker></defs><rect width="1000" height="400" fill="#ffffff"/><text x="24.0" y="38.0" font-size="24" fill="#5d4037" text-anchor="start" font-weight="bold" class="ftitle">ពីវគ្គនេះ ទៅសៀវភៅទី៤</text><rect x="20.0" y="150.0" width="148.0" height="100.0" rx="12" fill="#bcaaa4" stroke="none" stroke-width="1" /><text x="94.0" y="195.0" font-size="15" fill="#fff" text-anchor="middle" font-weight="bold" >រូបវិទ្យា</text><text x="94.0" y="225.0" font-size="13" fill="#fff" text-anchor="middle" font-weight="normal" >មេរៀន ១–៣</text><line x1="169.0" y1="200.0" x2="180.0" y2="200.0" stroke="#607d8b" stroke-width="2" marker-end="url(#arrow)"/><rect x="182.0" y="150.0" width="148.0" height="100.0" rx="12" fill="#a1887f" stroke="none" stroke-width="1" /><text x="256.0" y="195.0" font-size="15" fill="#fff" text-anchor="middle" font-weight="bold" >ទិន្នន័យ</text><text x="256.0" y="225.0" font-size="13" fill="#fff" text-anchor="middle" font-weight="normal" >៤–៦</text><line x1="331.0" y1="200.0" x2="342.0" y2="200.0" stroke="#607d8b" stroke-width="2" marker-end="url(#arrow)"/><rect x="344.0" y="150.0" width="148.0" height="100.0" rx="12" fill="#8d6e63" stroke="none" stroke-width="1" /><text x="418.0" y="195.0" font-size="15" fill="#fff" text-anchor="middle" font-weight="bold" >ត្រៀម</text><text x="418.0" y="225.0" font-size="13" fill="#fff" text-anchor="middle" font-weight="normal" >៧–៩</text><line x1="493.0" y1="200.0" x2="504.0" y2="200.0" stroke="#607d8b" stroke-width="2" marker-end="url(#arrow)"/><rect x="506.0" y="150.0" width="148.0" height="100.0" rx="12" fill="#6d4c41" stroke="none" stroke-width="1" /><text x="580.0" y="195.0" font-size="15" fill="#fff" text-anchor="middle" font-weight="bold" >វិភាគ</text><text x="580.0" y="225.0" font-size="13" fill="#fff" text-anchor="middle" font-weight="normal" >១០–១៣</text><line x1="655.0" y1="200.0" x2="666.0" y2="200.0" stroke="#607d8b" stroke-width="2" marker-end="url(#arrow)"/><rect x="668.0" y="150.0" width="148.0" height="100.0" rx="12" fill="#5d4037" stroke="none" stroke-width="1" /><text x="742.0" y="195.0" font-size="15" fill="#fff" text-anchor="middle" font-weight="bold" >ការផ្លាស់ប្ដូរ + SAR</text><text x="742.0" y="225.0" font-size="13" fill="#fff" text-anchor="middle" font-weight="normal" >១៤–១៥</text><line x1="817.0" y1="200.0" x2="828.0" y2="200.0" stroke="#607d8b" stroke-width="2" marker-end="url(#arrow)"/><rect x="830.0" y="150.0" width="148.0" height="100.0" rx="12" fill="#e64a19" stroke="none" stroke-width="1" /><text x="904.0" y="195.0" font-size="15" fill="#fff" text-anchor="middle" font-weight="bold" >GEE + ទ្រង់ទ្រាយធំ</text><text x="904.0" y="225.0" font-size="13" fill="#fff" text-anchor="middle" font-weight="normal" >សៀវភៅទី៤</text></svg>